<svg width="38" height="50" viewBox="0 0 38 50" fill="none" xmlns="http://www.w3.org/2000/svg">
<path fill-rule="evenodd" clip-rule="evenodd" d="M5.48136 1.25768C15.6628 -0.4424 21.396 -0.395571 31.5722 1.2567L31.9794 1.32311L31.9921 1.73424V1.74108C31.9922 1.74542 31.9928 1.75217 31.9931 1.76061C31.9936 1.77761 31.9941 1.8033 31.995 1.8358C31.997 1.90095 32.0005 1.99603 32.0038 2.1151C32.0106 2.35386 32.0192 2.69053 32.0282 3.0819C32.0437 3.75299 32.0564 4.58771 32.0605 5.36803C34.9994 6.22693 36.9251 8.29928 37.1161 10.8378C37.3101 13.4182 35.694 16.2523 31.9921 18.5311V22.9276L29.4775 26.034L24.6112 34.7938C26.2401 39.2301 27.0682 42.0003 27.787 46.0975C31.8783 46.4576 34.5644 47.0636 34.5644 47.7508C34.5637 48.8553 27.6244 49.7508 19.0644 49.7508C10.5044 49.7508 3.56501 48.8553 3.56437 47.7508C3.56437 47.0948 6.01283 46.515 9.79484 46.1503C10.4507 41.7972 11.2504 39.032 13.0097 34.7821L8.16105 26.0546L5.06437 22.9579V18.5741C1.60115 16.9664 -0.0638481 14.0078 0.00187117 11.2391C0.067231 8.49661 1.83711 6.00831 5.06437 5.33385V1.32702L5.48136 1.25768ZM13.8993 35.2508C12.2288 39.2969 11.4508 41.9541 10.8183 46.0594C13.2066 45.8654 16.0338 45.7508 19.0644 45.7508C21.8635 45.7508 24.4892 45.848 26.7558 46.0155C26.0657 42.1616 25.2637 39.4833 23.7128 35.2508H13.8993ZM30.037 23.7518C25.7723 25.0976 22.2353 25.763 18.6513 25.7518C15.1414 25.7408 11.6131 25.0826 7.34074 23.8202L8.91789 25.3973L8.96769 25.4462L9.00089 25.5077L13.8583 34.2508H23.7694L28.6269 25.5077L28.6484 25.4696L28.6757 25.4354L30.037 23.7518ZM31.0087 2.35534C21.3761 4.28724 15.6942 4.30005 6.06437 2.35924V22.3827C11.019 23.9456 14.8654 24.74 18.6552 24.7518C22.4418 24.7636 26.2048 23.9939 30.9921 22.3895V18.2479L31.0644 5.75084L31.0527 4.39342C31.046 3.93858 31.0372 3.49493 31.0282 3.10534C31.0217 2.8208 31.0144 2.56486 31.0087 2.35534ZM5.06437 6.35827C2.43493 6.9939 1.05507 9.03072 1.00187 11.2626C0.948894 13.4894 2.22349 15.9715 5.06437 17.4589V6.35827ZM31.997 17.3397C35.1177 15.2517 36.2665 12.8744 36.1191 10.913C35.9725 8.96528 34.5331 7.22806 32.0605 6.41491L31.997 17.3397ZM28.5478 1.80846C21.0872 0.747226 15.9354 0.72235 8.46964 1.80455C15.9406 3.15033 21.0846 3.14482 28.5478 1.80846Z" fill="black"/>
</svg>
