<svg width="91" height="81" viewBox="0 0 91 81" fill="none" xmlns="http://www.w3.org/2000/svg">
<path d="M60.6451 2.58957L79.2284 2.91394L76.2371 22.1515L60.6451 34.6421L55.8476 29.0701L68.3207 19.2576L71.1199 11.0394L63.1556 10.9004L51.8937 24.0701L46.8937 18.4824L60.6451 2.58957Z" stroke="black"/>
<path d="M14.8408 40.3696L25.4118 43.3098L30.6251 37.2845L36.3937 42.1716L30.6251 48.9123L37.7467 43.3098L43.3937 48.462L35.8385 54.5145L41.0038 62.8717L35.5981 68.2887L27.7299 62.64L19.6214 70.7655L19.4771 79.03L1.13417 64.9314L11.8013 62.362L19.9099 54.2365L12.0898 45.8329L14.8408 40.3696Z" stroke="black"/>
<path d="M12.3937 19.0701V0.570099L31.3937 3.0701L28.8937 11.0701L20.8937 8.5701V16.5701L12.3937 19.0701Z" stroke="black"/>
<path d="M50.8937 64.0701L53.8937 53.5701L14.3937 20.5701L22.7325 18.0701L58.8937 47.5701L30.3937 12.8951L33.0687 5.0701L64.8937 43.0701L72.8937 37.8201L78.3937 43.0701L72.8937 51.0701L81.3937 59.0701H89.3937L75.8937 77.0701L72.8937 67.0701L64.8937 59.0701L56.3937 67.0701L50.8937 64.0701Z" stroke="black"/>
</svg>
