<svg width="19" height="17" viewBox="0 0 19 17" fill="none" xmlns="http://www.w3.org/2000/svg">
<path d="M3.83427 4.0765V0.576504L7.33427 1.0765L13.3343 8.5765L14.8343 7.5765L15.8343 8.5765L14.8343 10.0765L16.3343 11.5765H17.8343L15.3343 15.0765L14.8343 13.0765L13.3343 11.5765L11.8343 13.0765L10.8343 12.5765L11.3343 10.5765L3.83427 4.0765Z" stroke="black"/>
<path d="M6.83427 2.57652L5.33427 2.0765V3.5765L12.3343 9.5765L6.83427 2.57652Z" stroke="black"/>
<path d="M13.4584 0.917066L16.9323 1.34361L16.0095 4.75659L13.1903 6.0765L12.3343 5.0765L14.8343 4.13313L15.2514 2.5765H13.1903L11.5456 4.13313L10.721 3.0765L13.4584 0.917066Z" stroke="black"/>
<path d="M3.83427 7.0765L5.83427 7.5765L7.83427 9.389L8.64396 11.4085L7.52955 12.2792L6.1626 11.1039L4.49097 12.4099L4.30817 13.8987L1.13893 10.9908L3.02177 10.764L4.49097 9.389L3.02177 7.76061L3.83427 7.0765Z" stroke="black"/>
</svg>
