<svg width="644" height="500" viewBox="0 0 644 500" fill="none" xmlns="http://www.w3.org/2000/svg">
<path d="M253.133 185.185L243.133 199.185C246.443 171.859 247.154 156.534 244.633 129.185C242.859 109.947 239.182 101.793 232.133 90.685L209.133 74.685C187.994 64.4251 175.547 61.8401 154.095 57.3849L153.133 57.185C144.803 55.4546 140.099 55.8113 131.633 59.685L95.1328 89.185L83.6328 102.185L77.6328 114.185V165.185L83.6328 201.685L91.6328 209.185L153.133 252.685L185.633 279.185L211.133 294.185L221.133 285.685L249.133 311.685L245.633 319.685L278.133 350.685C285.655 359.231 286.541 364.838 282.633 376.185L272.133 393.185L278.133 400.185C280.771 397.738 282.764 397.261 287.633 398.685L306.633 418.185C312.103 425.318 313.177 430.072 308.133 441.185L263.633 495.185C256.732 499.479 252.046 499.964 242.133 497.185L217.633 474.185C214.421 463.687 215.178 457.77 219.133 447.185L256.633 407.685C254.747 405.013 253.288 404.489 250.633 403.685L247.133 405.685C238.561 406.426 234.026 406.3 226.133 405.685L221.133 403.685L191.633 374.685C189.696 375.581 188.394 375.916 185.633 376.185L160.633 350.685L165.633 340.685L148.633 321.685L130.633 305.185L54.6328 267.185H89.1328C89.1328 267.185 41.1328 236.185 33.6328 229.685C26.1328 223.185 11.1328 183.685 11.1328 183.685L2.13275 154.185L0.632751 137.185L25.1328 165.185L23.6328 142.685C22.6053 119.614 23.326 107.331 25.1328 85.685L29.1328 77.185C34.5006 69.1623 37.9179 65.372 44.6328 59.685L68.6328 39.185C87.1725 23.1186 113.133 2.4135 116.633 1.685C120.133 0.956495 130.65 0.173586 139.633 1.685C151.078 3.61078 157.308 5.64659 168.633 8.185L196.633 17.685L239.633 39.185L261.633 57.185C266.264 65.732 268.928 70.8722 270.633 81.685C273.052 97.0283 274.94 106.053 273.633 122.685C272.497 137.127 270.359 145.066 266.133 159.185L253.133 185.185Z" stroke="black"/>
<path d="M321.633 449.685V412.185L296.633 387.185L317.133 361.185L351.633 309.185L309.133 268.185L335.133 233.685L363.133 271.685L394.133 304.685L431.633 333.685L474.633 354.185L473.633 384.185L429.133 381.685L397.133 353.185L353.133 398.685L350.133 409.685L413.133 471.685L391.133 495.185L362.133 497.185L321.633 449.685Z" stroke="black"/>
<path d="M376.633 262.185L399.633 286.685L587.633 69.685L410.633 296.185L439.133 319.185L630.633 113.185L643.133 0.684998L539.633 30.185L376.633 262.185Z" stroke="black"/>
</svg>
